<mxfile host="app.diagrams.net" modified="2022-04-27T05:04:38.794Z" agent="5.0 (Windows NT 10.0; Win64; x64) AppleWebKit/537.36 (KHTML, like Gecko) Chrome/100.0.4896.127 Safari/537.36 Edg/100.0.1185.50" etag="PiEQGC5YX2xboCTaFbCN" version="17.4.6" type="github">
  <diagram id="69YoF8s6pK7iw70b-nQL" name="Page-1">
    <mxGraphModel dx="1038" dy="579" grid="1" gridSize="10" guides="1" tooltips="1" connect="1" arrows="1" fold="1" page="1" pageScale="1" pageWidth="850" pageHeight="1100" math="0" shadow="0">
      <root>
        <mxCell id="0" />
        <mxCell id="1" parent="0" />
        <mxCell id="Gnrq6Jq-5mUZ2eu32NfB-6" value="" style="shape=image;verticalLabelPosition=bottom;labelBackgroundColor=default;verticalAlign=top;aspect=fixed;imageAspect=0;image=https://uploads-ssl.webflow.com/6184b461a39ff13bfb8c0556/61de99e8171cc6468145551d_flowchart-symbols-800.png;" vertex="1" parent="1">
          <mxGeometry x="30" y="70" width="363.85" height="240" as="geometry" />
        </mxCell>
        <UserObject label="https://www.zenflowchart.com/flowchart-symbols" link="https://www.zenflowchart.com/flowchart-symbols" id="Gnrq6Jq-5mUZ2eu32NfB-7">
          <mxCell style="text;whiteSpace=wrap;html=1;" vertex="1" parent="1">
            <mxGeometry x="60" y="30" width="280" height="30" as="geometry" />
          </mxCell>
        </UserObject>
        <mxCell id="Gnrq6Jq-5mUZ2eu32NfB-8" value="statements:&lt;br&gt;1. initialize&lt;br&gt;2.assign data" style="rounded=0;whiteSpace=wrap;html=1;" vertex="1" parent="1">
          <mxGeometry x="40" y="350" width="120" height="60" as="geometry" />
        </mxCell>
        <mxCell id="Gnrq6Jq-5mUZ2eu32NfB-9" value="functions call" style="rounded=1;whiteSpace=wrap;html=1;fillColor=#f8cecc;gradientColor=#ea6b66;strokeColor=#b85450;" vertex="1" parent="1">
          <mxGeometry x="40" y="430" width="120" height="60" as="geometry" />
        </mxCell>
        <mxCell id="Gnrq6Jq-5mUZ2eu32NfB-10" value="decesion making" style="rhombus;whiteSpace=wrap;html=1;" vertex="1" parent="1">
          <mxGeometry x="50" y="610" width="80" height="80" as="geometry" />
        </mxCell>
        <mxCell id="Gnrq6Jq-5mUZ2eu32NfB-12" value="data sending" style="shape=process;whiteSpace=wrap;html=1;backgroundOutline=1;fillColor=#f8cecc;strokeColor=#b85450;" vertex="1" parent="1">
          <mxGeometry x="460" y="440" width="120" height="60" as="geometry" />
        </mxCell>
        <mxCell id="Gnrq6Jq-5mUZ2eu32NfB-13" value="timeout" style="shape=process;whiteSpace=wrap;html=1;backgroundOutline=1;fillColor=#fad7ac;strokeColor=#b46504;" vertex="1" parent="1">
          <mxGeometry x="736.15" y="440" width="120" height="60" as="geometry" />
        </mxCell>
        <mxCell id="Gnrq6Jq-5mUZ2eu32NfB-14" value="worker" style="shape=process;whiteSpace=wrap;html=1;backgroundOutline=1;fillColor=#b1ddf0;strokeColor=#10739e;" vertex="1" parent="1">
          <mxGeometry x="596.15" y="440" width="120" height="60" as="geometry" />
        </mxCell>
        <mxCell id="Gnrq6Jq-5mUZ2eu32NfB-16" value="" style="edgeStyle=orthogonalEdgeStyle;rounded=0;orthogonalLoop=1;jettySize=auto;html=1;fontColor=#000000;" edge="1" parent="1" source="Gnrq6Jq-5mUZ2eu32NfB-15" target="Gnrq6Jq-5mUZ2eu32NfB-12">
          <mxGeometry relative="1" as="geometry" />
        </mxCell>
        <mxCell id="Gnrq6Jq-5mUZ2eu32NfB-15" value="predefine proces" style="shape=process;whiteSpace=wrap;html=1;backgroundOutline=1;fontColor=#FF3333;" vertex="1" parent="1">
          <mxGeometry x="290" y="440" width="120" height="60" as="geometry" />
        </mxCell>
        <mxCell id="Gnrq6Jq-5mUZ2eu32NfB-17" value="function return&amp;nbsp;" style="rounded=1;whiteSpace=wrap;html=1;fillColor=#d5e8d4;gradientColor=#97d077;strokeColor=#82b366;" vertex="1" parent="1">
          <mxGeometry x="40.000000000000014" y="510" width="120" height="60" as="geometry" />
        </mxCell>
      </root>
    </mxGraphModel>
  </diagram>
</mxfile>
